# Blender v2.80 (sub 75) OBJ File: ''
# www.blender.org
mtllib level01.mtl
o Cube_Cube.002
v 10.000000 10.000000 -10.000000
v 10.000000 0.000000 -10.000000
v 10.000000 10.000000 10.000000
v 10.000000 0.000000 10.000000
v -10.000000 10.000000 -10.000000
v -10.000000 0.000000 -10.000000
v -10.000000 10.000000 10.000000
v -10.000000 0.000000 10.000000
vt 0.750000 0.375000
vt 0.250000 0.625000
vt 0.750000 0.625000
vt 0.750000 0.375000
vt 0.250000 0.625000
vt 0.750000 0.625000
vt 0.250000 0.375000
vt 0.750000 0.625000
vt 0.250000 0.375000
vt 0.250000 0.625000
vt 0.250000 0.250000
vt 0.750000 0.750000
vt 0.750000 0.250000
vt 0.750000 0.250000
vt 0.250000 0.750000
vt 0.250000 0.250000
vt 0.250000 0.375000
vt 0.750000 0.375000
vt 0.250000 0.750000
vt 0.750000 0.750000
vn -1.0000 0.0000 0.0000
vn 0.0000 0.0000 -1.0000
vn 1.0000 0.0000 0.0000
vn 0.0000 0.0000 1.0000
vn 0.0000 -1.0000 0.0000
vn 0.0000 1.0000 0.0000
usemtl UVBoardMat
s off
f 2/1/1 3/2/1 1/3/1
f 4/4/2 7/5/2 3/6/2
f 8/7/3 5/8/3 7/5/3
f 6/9/4 1/3/4 5/10/4
f 7/11/5 1/12/5 3/13/5
f 4/14/6 6/15/6 8/16/6
f 2/1/1 4/17/1 3/2/1
f 4/4/2 8/7/2 7/5/2
f 8/7/3 6/18/3 5/8/3
f 6/9/4 2/1/4 1/3/4
f 7/11/5 5/19/5 1/12/5
f 4/14/6 2/20/6 6/15/6
